<svg xmlns="http://www.w3.org/2000/svg" width="148.102" height="162.279" viewBox="0 0 148.102 162.279"><defs><style>.a{fill:none;stroke:#b4c7ff;stroke-miterlimit:10;stroke-width:1.771px;}.b{fill:#6365f1;}</style></defs><g transform="translate(-349.329 -47.995)"><rect class="a" width="98.731" height="98.731" rx="1.72" transform="matrix(0.707, 0.707, -0.707, 0.707, 426.029, 69.394)"/><g transform="translate(349.329 47.995)"><g transform="translate(76.513)"><circle class="b" cx="1.546" cy="1.546" r="1.546"/><path class="b" d="M412.143,61.638a1.545,1.545,0,1,1,0-2.185A1.546,1.546,0,0,1,412.143,61.638Z" transform="translate(-392.38 -41.875)"/><path class="b" d="M423.148,72.643a1.546,1.546,0,1,1,0-2.186A1.546,1.546,0,0,1,423.148,72.643Z" transform="translate(-386.26 -35.756)"/><path class="b" d="M434.152,83.648a1.546,1.546,0,1,1,0-2.186A1.546,1.546,0,0,1,434.152,83.648Z" transform="translate(-380.141 -29.636)"/><circle class="b" cx="1.546" cy="1.546" r="1.546" transform="translate(68.497 68.497)"/></g><g transform="translate(61.21 15.303)"><path class="b" d="M391.3,60.468a1.546,1.546,0,1,1,0-2.186A1.546,1.546,0,0,1,391.3,60.468Z" transform="translate(-388.665 -57.829)"/><circle class="b" cx="1.546" cy="1.546" r="1.546" transform="translate(17.125 17.124)"/><circle class="b" cx="1.546" cy="1.546" r="1.546" transform="translate(34.249 34.249)"/><circle class="b" cx="1.546" cy="1.546" r="1.546" transform="translate(51.373 51.373)"/><circle class="b" cx="1.546" cy="1.546" r="1.546" transform="translate(68.497 68.497)"/></g><g transform="translate(45.908 30.605)"><path class="b" d="M381.47,70.3a1.546,1.546,0,1,1,0-2.186A1.546,1.546,0,0,1,381.47,70.3Z" transform="translate(-378.831 -67.663)"/><circle class="b" cx="1.546" cy="1.546" r="1.546" transform="translate(17.124 17.124)"/><circle class="b" cx="1.546" cy="1.546" r="1.546" transform="translate(34.249 34.249)"/><circle class="b" cx="1.546" cy="1.546" r="1.546" transform="translate(51.373 51.373)"/><path class="b" d="M425.489,114.321a1.546,1.546,0,1,1,0-2.186A1.546,1.546,0,0,1,425.489,114.321Z" transform="translate(-354.353 -43.185)"/></g><g transform="translate(30.605 45.908)"><path class="b" d="M371.636,80.136a1.546,1.546,0,1,1,0-2.186A1.546,1.546,0,0,1,371.636,80.136Z" transform="translate(-368.997 -77.497)"/><path class="b" d="M382.641,91.141a1.546,1.546,0,1,1,0-2.186A1.546,1.546,0,0,1,382.641,91.141Z" transform="translate(-362.877 -71.377)"/><circle class="b" cx="1.546" cy="1.546" r="1.546" transform="translate(34.249 34.249)"/><path class="b" d="M404.65,113.15a1.546,1.546,0,1,1,0-2.186A1.546,1.546,0,0,1,404.65,113.15Z" transform="translate(-350.639 -59.139)"/><path class="b" d="M415.655,124.155a1.546,1.546,0,1,1,0-2.186A1.546,1.546,0,0,1,415.655,124.155Z" transform="translate(-344.519 -53.019)"/></g><g transform="translate(15.303 61.21)"><path class="b" d="M361.8,89.97a1.546,1.546,0,1,1,0-2.186A1.546,1.546,0,0,1,361.8,89.97Z" transform="translate(-359.163 -87.331)"/><circle class="b" cx="1.546" cy="1.546" r="1.546" transform="translate(17.124 17.124)"/><circle class="b" cx="1.546" cy="1.546" r="1.546" transform="translate(34.249 34.249)"/><circle class="b" cx="1.546" cy="1.546" r="1.546" transform="translate(51.373 51.373)"/><path class="b" d="M405.821,133.989a1.546,1.546,0,1,1,0-2.186A1.546,1.546,0,0,1,405.821,133.989Z" transform="translate(-334.685 -62.853)"/></g><g transform="translate(0 76.513)"><path class="b" d="M351.968,99.8a1.546,1.546,0,1,1,0-2.186A1.546,1.546,0,0,1,351.968,99.8Z" transform="translate(-349.329 -97.165)"/><circle class="b" cx="1.546" cy="1.546" r="1.546" transform="translate(17.124 17.125)"/><circle class="b" cx="1.546" cy="1.546" r="1.546" transform="translate(34.249 34.249)"/><circle class="b" cx="1.546" cy="1.546" r="1.546" transform="translate(51.373 51.373)"/><path class="b" d="M395.987,143.823a1.546,1.546,0,1,1,0-2.186A1.546,1.546,0,0,1,395.987,143.823Z" transform="translate(-324.851 -72.687)"/></g></g></g></svg>