<svg xmlns="http://www.w3.org/2000/svg" width="155.11" height="164.148" viewBox="0 0 155.11 164.148"><defs><style>.a{fill:none;stroke:#6365f1;stroke-miterlimit:10;stroke-width:2px;}.b{fill:#b4c7ff;}</style></defs><g transform="translate(-453.997 -345.344)"><rect class="a" width="137.919" height="137.919" rx="1.471" transform="translate(592.916 484.263) rotate(180)"/><g transform="translate(469.471 354.021)"><g transform="translate(0 151.153)"><path class="b" d="M513.927,410.991a2.159,2.159,0,1,1,2.161,2.158A2.162,2.162,0,0,1,513.927,410.991Z" transform="translate(-378.61 -408.83)"/><path class="b" d="M500.618,410.991a2.159,2.159,0,1,1,2.161,2.158A2.162,2.162,0,0,1,500.618,410.991Z" transform="translate(-399.13 -408.83)"/><path class="b" d="M487.309,410.991a2.159,2.159,0,1,1,2.161,2.158A2.16,2.16,0,0,1,487.309,410.991Z" transform="translate(-419.65 -408.83)"/><path class="b" d="M474,410.991a2.159,2.159,0,1,1,2.158,2.158A2.16,2.16,0,0,1,474,410.991Z" transform="translate(-440.171 -408.83)"/><path class="b" d="M460.691,410.991a2.159,2.159,0,1,1,2.158,2.158A2.16,2.16,0,0,1,460.691,410.991Z" transform="translate(-460.691 -408.83)"/></g><g transform="translate(0 120.923)"><path class="b" d="M513.927,399.1a2.159,2.159,0,1,1,2.161,2.158A2.16,2.16,0,0,1,513.927,399.1Z" transform="translate(-378.61 -396.937)"/><path class="b" d="M500.618,399.1a2.159,2.159,0,1,1,2.161,2.158A2.16,2.16,0,0,1,500.618,399.1Z" transform="translate(-399.13 -396.937)"/><path class="b" d="M487.309,399.1a2.159,2.159,0,1,1,2.161,2.158A2.159,2.159,0,0,1,487.309,399.1Z" transform="translate(-419.65 -396.937)"/><path class="b" d="M474,399.1a2.159,2.159,0,1,1,2.158,2.158A2.158,2.158,0,0,1,474,399.1Z" transform="translate(-440.171 -396.937)"/><path class="b" d="M460.691,399.1a2.159,2.159,0,1,1,2.158,2.158A2.158,2.158,0,0,1,460.691,399.1Z" transform="translate(-460.691 -396.937)"/></g><g transform="translate(0 90.692)"><path class="b" d="M513.927,387.2a2.159,2.159,0,1,1,2.161,2.161A2.16,2.16,0,0,1,513.927,387.2Z" transform="translate(-378.61 -385.043)"/><circle class="b" cx="2.159" cy="2.159" r="2.159" transform="translate(101.489)"/><circle class="b" cx="2.159" cy="2.159" r="2.159" transform="translate(67.659)"/><path class="b" d="M474,387.2a2.159,2.159,0,1,1,2.158,2.161A2.158,2.158,0,0,1,474,387.2Z" transform="translate(-440.171 -385.043)"/><path class="b" d="M460.691,387.2a2.159,2.159,0,1,1,2.158,2.161A2.158,2.158,0,0,1,460.691,387.2Z" transform="translate(-460.691 -385.043)"/></g><g transform="translate(0 60.46)"><path class="b" d="M513.927,375.311a2.159,2.159,0,1,1,2.161,2.161A2.162,2.162,0,0,1,513.927,375.311Z" transform="translate(-378.61 -373.15)"/><circle class="b" cx="2.159" cy="2.159" r="2.159" transform="translate(101.489 0.001)"/><circle class="b" cx="2.159" cy="2.159" r="2.159" transform="translate(67.659 0.001)"/><path class="b" d="M474,375.311a2.159,2.159,0,1,1,2.158,2.161A2.16,2.16,0,0,1,474,375.311Z" transform="translate(-440.171 -373.15)"/><path class="b" d="M460.691,375.311a2.159,2.159,0,1,1,2.158,2.161A2.16,2.16,0,0,1,460.691,375.311Z" transform="translate(-460.691 -373.15)"/></g><g transform="translate(0 30.23)"><path class="b" d="M513.927,363.418a2.159,2.159,0,1,1,2.161,2.158A2.162,2.162,0,0,1,513.927,363.418Z" transform="translate(-378.61 -361.257)"/><circle class="b" cx="2.159" cy="2.159" r="2.159" transform="translate(101.489 0.001)"/><circle class="b" cx="2.159" cy="2.159" r="2.159" transform="translate(67.659 0.001)"/><path class="b" d="M474,363.418a2.159,2.159,0,1,1,2.158,2.158A2.16,2.16,0,0,1,474,363.418Z" transform="translate(-440.171 -361.257)"/><path class="b" d="M460.691,363.418a2.159,2.159,0,1,1,2.158,2.158A2.16,2.16,0,0,1,460.691,363.418Z" transform="translate(-460.691 -361.257)"/></g><path class="b" d="M513.927,351.522a2.159,2.159,0,1,1,2.161,2.16A2.16,2.16,0,0,1,513.927,351.522Z" transform="translate(-378.61 -349.364)"/><path class="b" d="M500.618,351.522a2.159,2.159,0,1,1,2.161,2.16A2.16,2.16,0,0,1,500.618,351.522Z" transform="translate(-399.13 -349.364)"/><path class="b" d="M487.309,351.522a2.159,2.159,0,1,1,2.161,2.16A2.158,2.158,0,0,1,487.309,351.522Z" transform="translate(-419.65 -349.364)"/><path class="b" d="M474,351.522a2.159,2.159,0,1,1,2.158,2.16A2.158,2.158,0,0,1,474,351.522Z" transform="translate(-440.171 -349.364)"/><path class="b" d="M460.691,351.522a2.159,2.159,0,1,1,2.158,2.16A2.158,2.158,0,0,1,460.691,351.522Z" transform="translate(-460.691 -349.364)"/></g></g></svg>