<svg xmlns="http://www.w3.org/2000/svg" width="184.009" height="204.198" viewBox="0 0 184.009 204.198"><defs><style>.a{fill:#6365f1;}.b{fill:#b4c7ff;}</style></defs><g transform="translate(-464.13 -439.673)"><g transform="translate(464.13 522.202)"><path class="a" d="M476.25,490.054a6.936,6.936,0,1,1-.574-9.793A6.936,6.936,0,0,1,476.25,490.054Z" transform="translate(-464.13 -478.508)"/><path class="b" d="M490.508,502.735a6.936,6.936,0,1,1-.574-9.793A6.936,6.936,0,0,1,490.508,502.735Z" transform="translate(-448.088 -464.239)"/><path class="a" d="M519.024,528.1a6.936,6.936,0,1,1-.574-9.793A6.936,6.936,0,0,1,519.024,528.1Z" transform="translate(-416.004 -435.704)"/><path class="b" d="M533.281,540.778a6.935,6.935,0,1,1-.572-9.792A6.936,6.936,0,0,1,533.281,540.778Z" transform="translate(-399.961 -421.436)"/></g><g transform="translate(518.897 521.641)"><path class="a" d="M502.021,489.79a6.936,6.936,0,1,1-.574-9.793A6.936,6.936,0,0,1,502.021,489.79Z" transform="translate(-489.901 -478.244)"/><path class="a" d="M516.279,502.471a6.936,6.936,0,1,1-.574-9.793A6.936,6.936,0,0,1,516.279,502.471Z" transform="translate(-473.859 -463.976)"/><path class="b" d="M530.536,515.152a6.936,6.936,0,1,1-.572-9.793A6.936,6.936,0,0,1,530.536,515.152Z" transform="translate(-457.816 -449.708)"/></g><g transform="translate(543.363 494.132)"><path class="b" d="M513.534,476.845a6.936,6.936,0,1,1-.574-9.793A6.936,6.936,0,0,1,513.534,476.845Z" transform="translate(-501.414 -465.299)"/><path class="a" d="M527.792,489.526a6.936,6.936,0,1,1-.574-9.793A6.936,6.936,0,0,1,527.792,489.526Z" transform="translate(-485.372 -451.031)"/><path class="a" d="M542.049,502.207a6.936,6.936,0,1,1-.572-9.793A6.936,6.936,0,0,1,542.049,502.207Z" transform="translate(-469.329 -436.763)"/><path class="a" d="M556.309,514.888a6.936,6.936,0,1,1-.574-9.793A6.936,6.936,0,0,1,556.309,514.888Z" transform="translate(-453.287 -422.496)"/></g><g transform="translate(537.53 439.673)"><path class="b" d="M510.789,451.219a6.936,6.936,0,1,1-.574-9.793A6.936,6.936,0,0,1,510.789,451.219Z" transform="translate(-498.669 -439.673)"/><path class="a" d="M539.3,476.581a6.935,6.935,0,1,1-.572-9.793A6.936,6.936,0,0,1,539.3,476.581Z" transform="translate(-466.584 -411.137)"/><path class="b" d="M553.562,489.262a6.935,6.935,0,1,1-.572-9.793A6.936,6.936,0,0,1,553.562,489.262Z" transform="translate(-450.542 -396.87)"/></g></g></svg>